<svg width="16" height="16" viewBox="0 0 16 16" fill="none" xmlns="http://www.w3.org/2000/svg">
<g clip-path="url(#clip0_923_109)">
<path fill-rule="evenodd" clip-rule="evenodd" d="M5.99998 13.9166C5.95396 13.9166 5.91665 13.9539 5.91665 13.9999C5.91665 14.0459 5.95396 14.0833 5.99998 14.0833C6.046 14.0833 6.08331 14.0459 6.08331 13.9999C6.08331 13.9539 6.046 13.9166 5.99998 13.9166ZM4.74998 13.9999C4.74998 13.3096 5.30962 12.7499 5.99998 12.7499C6.69034 12.7499 7.24998 13.3096 7.24998 13.9999C7.24998 14.6903 6.69034 15.2499 5.99998 15.2499C5.30962 15.2499 4.74998 14.6903 4.74998 13.9999Z" fill="#E0E5EB"/>
<path fill-rule="evenodd" clip-rule="evenodd" d="M13.3333 13.9166C13.2873 13.9166 13.25 13.9539 13.25 13.9999C13.25 14.0459 13.2873 14.0833 13.3333 14.0833C13.3793 14.0833 13.4166 14.0459 13.4166 13.9999C13.4166 13.9539 13.3793 13.9166 13.3333 13.9166ZM12.0833 13.9999C12.0833 13.3096 12.643 12.7499 13.3333 12.7499C14.0237 12.7499 14.5833 13.3096 14.5833 13.9999C14.5833 14.6903 14.0237 15.2499 13.3333 15.2499C12.643 15.2499 12.0833 14.6903 12.0833 13.9999Z" fill="#E0E5EB"/>
<path fill-rule="evenodd" clip-rule="evenodd" d="M0.083313 0.666585C0.083313 0.344419 0.34448 0.083252 0.666646 0.083252H3.33331C3.61135 0.083252 3.85074 0.279477 3.9053 0.552102L4.47863 3.41659H15.3333C15.5072 3.41659 15.672 3.49413 15.7828 3.62808C15.8936 3.76202 15.9389 3.93842 15.9063 4.10919L14.8388 9.7069C14.7512 10.1481 14.5111 10.5444 14.1607 10.8265C13.8119 11.1073 13.3758 11.2571 12.9282 11.2499H6.45841C6.01079 11.2571 5.57471 11.1073 5.22589 10.8265C4.87562 10.5445 4.63564 10.1484 4.54792 9.7074L3.43377 4.14079C3.42956 4.12381 3.42609 4.10654 3.42341 4.08902L2.85516 1.24992H0.666646C0.34448 1.24992 0.083313 0.988751 0.083313 0.666585ZM4.71213 4.58325L5.69214 9.47961C5.72643 9.65226 5.82035 9.80734 5.95747 9.91772C6.09458 10.0281 6.26615 10.0867 6.44214 10.0834L6.45331 10.0833H12.9333L12.9445 10.0834C13.1205 10.0867 13.292 10.0281 13.4292 9.91772C13.5658 9.80775 13.6595 9.6534 13.6941 9.48151L13.6945 9.47961L14.6282 4.58325H4.71213Z" fill="#E0E5EB"/>
</g>
<defs>
<clipPath id="clip0_923_109">
<rect width="16" height="16" fill="white"/>
</clipPath>
</defs>
</svg>
