<svg width="95" height="20" viewBox="0 0 95 20" fill="none" xmlns="http://www.w3.org/2000/svg">
<path d="M15.3835 7.43462H12.196C12.1051 6.91189 11.9375 6.44882 11.6932 6.04541C11.4489 5.63632 11.1449 5.28973 10.7813 5.00564C10.4176 4.72155 10.0028 4.50848 9.53693 4.36643C9.0767 4.21871 8.57955 4.14484 8.04545 4.14484C7.09659 4.14484 6.25568 4.38348 5.52273 4.86075C4.78977 5.33234 4.21591 6.02552 3.80114 6.9403C3.38636 7.84939 3.17898 8.96018 3.17898 10.2727C3.17898 11.6079 3.38636 12.7329 3.80114 13.6477C4.22159 14.5568 4.79545 15.2443 5.52273 15.7102C6.25568 16.1704 7.09375 16.4005 8.03693 16.4005C8.55966 16.4005 9.0483 16.3323 9.50284 16.196C9.96307 16.0539 10.375 15.8465 10.7386 15.5738C11.108 15.3011 11.4176 14.9659 11.6676 14.5681C11.9233 14.1704 12.0994 13.7159 12.196 13.2045L15.3835 13.2215C15.2642 14.0511 15.0057 14.8295 14.608 15.5568C14.2159 16.284 13.7017 16.9261 13.0653 17.4829C12.429 18.034 11.6847 18.4659 10.8324 18.7784C9.98011 19.0852 9.03409 19.2386 7.99432 19.2386C6.46023 19.2386 5.09091 18.8835 3.88636 18.1733C2.68182 17.463 1.73295 16.4375 1.03977 15.0965C0.346591 13.7556 0 12.1477 0 10.2727C0 8.392 0.349432 6.78405 1.0483 5.44882C1.74716 4.10791 2.69886 3.08234 3.90341 2.37211C5.10795 1.66189 6.47159 1.30677 7.99432 1.30677C8.96591 1.30677 9.86932 1.44314 10.7045 1.71586C11.5398 1.98859 12.2841 2.38916 12.9375 2.91757C13.5909 3.4403 14.1278 4.08234 14.5483 4.84371C14.9744 5.59939 15.2528 6.46302 15.3835 7.43462Z" fill="white"/>
<path d="M21.9098 19.2642C21.0803 19.2642 20.3331 19.1164 19.6683 18.821C19.0092 18.5198 18.4865 18.0767 18.1001 17.4914C17.7195 16.9062 17.5291 16.1846 17.5291 15.3267C17.5291 14.588 17.6655 13.9772 17.9382 13.4943C18.2109 13.0113 18.5831 12.625 19.0547 12.3352C19.5263 12.0454 20.0575 11.8267 20.6484 11.6789C21.245 11.5255 21.8615 11.4147 22.4979 11.3465C23.2649 11.267 23.8871 11.196 24.3643 11.1335C24.8416 11.0653 25.1882 10.963 25.4041 10.8267C25.6257 10.6846 25.7365 10.4659 25.7365 10.1704V10.1193C25.7365 9.47723 25.5462 8.98007 25.1655 8.6278C24.7848 8.27552 24.2365 8.09939 23.5206 8.09939C22.7649 8.09939 22.1655 8.26416 21.7223 8.59371C21.2848 8.92325 20.9893 9.31246 20.8359 9.76132L17.9553 9.35223C18.1825 8.55677 18.5575 7.892 19.0803 7.35791C19.603 6.81814 20.2422 6.41473 20.9979 6.14768C21.7535 5.87496 22.5888 5.73859 23.5035 5.73859C24.1342 5.73859 24.7621 5.81246 25.3871 5.96018C26.0121 6.10791 26.5831 6.35223 27.1001 6.69314C27.6172 7.02836 28.032 7.48575 28.3445 8.0653C28.6626 8.64484 28.8217 9.36927 28.8217 10.2386V19H25.8558V17.2017H25.7535C25.566 17.5653 25.3018 17.9062 24.9609 18.2244C24.6257 18.5369 24.2024 18.7897 23.691 18.9829C23.1854 19.1704 22.5916 19.2642 21.9098 19.2642ZM22.7109 16.9971C23.3303 16.9971 23.8672 16.875 24.3217 16.6306C24.7763 16.3806 25.1257 16.0511 25.37 15.642C25.62 15.2329 25.745 14.7869 25.745 14.3039V12.7613C25.6484 12.8409 25.4837 12.9147 25.2507 12.9829C25.0234 13.0511 24.7678 13.1108 24.4837 13.1619C24.1996 13.213 23.9183 13.2585 23.6399 13.2983C23.3615 13.338 23.12 13.3721 22.9155 13.4005C22.4553 13.463 22.0433 13.5653 21.6797 13.7073C21.3161 13.8494 21.0291 14.0483 20.8189 14.3039C20.6087 14.5539 20.5035 14.8778 20.5035 15.2755C20.5035 15.8437 20.7109 16.2727 21.1257 16.5625C21.5405 16.8522 22.0689 16.9971 22.7109 16.9971Z" fill="white"/>
<path d="M31.924 19V5.90905H34.9155V8.09087H35.0518C35.2905 7.33518 35.6996 6.7528 36.2791 6.34371C36.8643 5.92893 37.532 5.72155 38.282 5.72155C38.4524 5.72155 38.6428 5.73007 38.853 5.74711C39.0689 5.75848 39.2479 5.77837 39.3899 5.80677V8.64484C39.2592 8.59939 39.0518 8.55962 38.7678 8.52552C38.4893 8.48575 38.2195 8.46587 37.9581 8.46587C37.3956 8.46587 36.8899 8.58802 36.4411 8.83234C35.9979 9.07098 35.6484 9.40336 35.3928 9.8295C35.1371 10.2556 35.0092 10.7471 35.0092 11.3039V19H31.924Z" fill="white"/>
<path d="M48.6797 5.90905V8.29541H41.1541V5.90905H48.6797ZM43.0121 2.77268H46.0973V15.0625C46.0973 15.4772 46.1598 15.7954 46.2848 16.017C46.4155 16.2329 46.5859 16.3806 46.7962 16.4602C47.0064 16.5397 47.2393 16.5795 47.495 16.5795C47.6882 16.5795 47.8643 16.5653 48.0234 16.5369C48.1882 16.5085 48.3132 16.4829 48.3984 16.4602L48.9183 18.8721C48.7536 18.9289 48.5178 18.9914 48.2109 19.0596C47.9098 19.1278 47.5405 19.1676 47.103 19.1789C46.3303 19.2017 45.6342 19.0852 45.0149 18.8295C44.3956 18.5681 43.9041 18.1647 43.5405 17.6193C43.1825 17.0738 43.0064 16.392 43.0121 15.5738V2.77268Z" fill="white"/>
<path d="M51.0895 19V17.0397L57.8395 8.57666V8.46587H51.3111V5.90905H61.6151V8.01416L55.1889 16.3323V16.4431H61.8367V19H51.0895Z" fill="white"/>
<path d="M64.7365 19V5.90905H67.8217V19H64.7365ZM66.2876 4.05109C65.799 4.05109 65.3785 3.88916 65.0263 3.5653C64.674 3.23575 64.4979 2.84086 64.4979 2.38064C64.4979 1.91473 64.674 1.51984 65.0263 1.19598C65.3785 0.866433 65.799 0.70166 66.2876 0.70166C66.782 0.70166 67.2024 0.866433 67.549 1.19598C67.9013 1.51984 68.0774 1.91473 68.0774 2.38064C68.0774 2.84086 67.9013 3.23575 67.549 3.5653C67.2024 3.88916 66.782 4.05109 66.2876 4.05109Z" fill="white"/>
<path d="M74.0795 1.54541V19H70.9943V1.54541H74.0795Z" fill="white"/>
<path d="M80.3374 1.54541V19H77.2521V1.54541H80.3374Z" fill="white"/>
<path d="M87.277 19.2642C86.4474 19.2642 85.7003 19.1164 85.0355 18.821C84.3764 18.5198 83.8537 18.0767 83.4673 17.4914C83.0866 16.9062 82.8963 16.1846 82.8963 15.3267C82.8963 14.588 83.0327 13.9772 83.3054 13.4943C83.5781 13.0113 83.9503 12.625 84.4219 12.3352C84.8935 12.0454 85.4247 11.8267 86.0156 11.6789C86.6122 11.5255 87.2287 11.4147 87.8651 11.3465C88.6321 11.267 89.2543 11.196 89.7315 11.1335C90.2088 11.0653 90.5554 10.963 90.7713 10.8267C90.9929 10.6846 91.1037 10.4659 91.1037 10.1704V10.1193C91.1037 9.47723 90.9134 8.98007 90.5327 8.6278C90.152 8.27552 89.6037 8.09939 88.8878 8.09939C88.1321 8.09939 87.5327 8.26416 87.0895 8.59371C86.652 8.92325 86.3565 9.31246 86.2031 9.76132L83.3224 9.35223C83.5497 8.55677 83.9247 7.892 84.4474 7.35791C84.9702 6.81814 85.6094 6.41473 86.3651 6.14768C87.1207 5.87496 87.956 5.73859 88.8707 5.73859C89.5014 5.73859 90.1293 5.81246 90.7543 5.96018C91.3793 6.10791 91.9503 6.35223 92.4673 6.69314C92.9844 7.02836 93.3991 7.48575 93.7116 8.0653C94.0298 8.64484 94.1889 9.36927 94.1889 10.2386V19H91.223V17.2017H91.1207C90.9332 17.5653 90.669 17.9062 90.3281 18.2244C89.9929 18.5369 89.5696 18.7897 89.0582 18.9829C88.5526 19.1704 87.9588 19.2642 87.277 19.2642ZM88.0781 16.9971C88.6974 16.9971 89.2344 16.875 89.6889 16.6306C90.1435 16.3806 90.4929 16.0511 90.7372 15.642C90.9872 15.2329 91.1122 14.7869 91.1122 14.3039V12.7613C91.0156 12.8409 90.8509 12.9147 90.6179 12.9829C90.3906 13.0511 90.1349 13.1108 89.8509 13.1619C89.5668 13.213 89.2855 13.2585 89.0071 13.2983C88.7287 13.338 88.4872 13.3721 88.2827 13.4005C87.8224 13.463 87.4105 13.5653 87.0469 13.7073C86.6832 13.8494 86.3963 14.0483 86.1861 14.3039C85.9758 14.5539 85.8707 14.8778 85.8707 15.2755C85.8707 15.8437 86.0781 16.2727 86.4929 16.5625C86.9077 16.8522 87.4361 16.9971 88.0781 16.9971Z" fill="white"/>
</svg>
