<svg width="16" height="16" viewBox="0 0 16 16" fill="none" xmlns="http://www.w3.org/2000/svg">
<path fill-rule="evenodd" clip-rule="evenodd" d="M9.89065 1.65702C10.4064 1.44331 10.9592 1.33331 11.5175 1.33331C12.0758 1.33331 12.6286 1.44331 13.1444 1.65702C13.6601 1.87072 14.1288 2.18395 14.5234 2.57881C14.9182 2.97345 15.2314 3.44199 15.445 3.95766C15.6587 4.47343 15.7687 5.02624 15.7687 5.58453C15.7687 6.14282 15.6587 6.69563 15.445 7.2114C15.2313 7.72712 14.9181 8.19569 14.5233 8.59034C14.5233 8.59037 14.5234 8.59031 14.5233 8.59034L8.63 14.4837C8.40219 14.7115 8.03284 14.7115 7.80504 14.4837L1.9117 8.59034C1.11451 7.79315 0.666656 6.71193 0.666656 5.58453C0.666656 4.45713 1.11451 3.37591 1.9117 2.57872C2.7089 1.78153 3.79012 1.33367 4.91752 1.33367C6.04492 1.33367 7.12614 1.78153 7.92333 2.57872L8.21752 2.87291L8.51161 2.57881C8.90628 2.18395 9.37489 1.87072 9.89065 1.65702ZM13.6983 3.40358C13.4119 3.11711 13.072 2.88987 12.6978 2.73482C12.3236 2.57978 11.9225 2.49998 11.5175 2.49998C11.1125 2.49998 10.7114 2.57978 10.3372 2.73482C9.96306 2.88987 9.62309 3.11711 9.33676 3.40358L8.63 4.11034C8.40219 4.33815 8.03284 4.33815 7.80504 4.11034L7.09837 3.40368C6.51997 2.82528 5.7355 2.50034 4.91752 2.50034C4.09954 2.50034 3.31506 2.82528 2.73666 3.40368C2.15826 3.98207 1.83332 4.76655 1.83332 5.58453C1.83332 6.40251 2.15826 7.18699 2.73666 7.76538L8.21752 13.2462L13.6984 7.76538C13.9848 7.47905 14.2122 7.13899 14.3672 6.7648C14.5223 6.39062 14.6021 5.98956 14.6021 5.58453C14.6021 5.1795 14.5223 4.77844 14.3672 4.40425C14.2122 4.03007 13.9847 3.68991 13.6983 3.40358Z" fill="#E0E5EB"/>
</svg>
