<svg width="16" height="16" viewBox="0 0 16 16" fill="none" xmlns="http://www.w3.org/2000/svg">
<path fill-rule="evenodd" clip-rule="evenodd" d="M7.98208 1.71369C8.09497 1.914 8.07967 2.16193 7.94299 2.34683C7.36165 3.13332 7.08191 4.10234 7.15464 5.07765C7.22737 6.05297 7.64775 6.96978 8.33931 7.66134C9.03088 8.35291 9.94769 8.77329 10.923 8.84602C11.8983 8.91875 12.8673 8.639 13.6538 8.05766C14.0579 7.76887 14.6155 8.08493 14.5814 8.58044C14.4664 9.82557 13.9991 11.0122 13.2342 12.0014C12.4694 12.9907 11.4386 13.7416 10.2625 14.1664C9.08647 14.5912 7.81375 14.6723 6.59328 14.4002C5.37282 14.128 4.2551 13.5139 3.3709 12.6298C2.48671 11.7456 1.87262 10.6278 1.60049 9.40738C1.32835 8.18691 1.40943 6.91418 1.83423 5.73812C2.25904 4.56205 3.00999 3.53129 3.99924 2.76644C4.98848 2.00159 6.17509 1.5343 7.42022 1.41923C7.64917 1.39807 7.86919 1.51338 7.98208 1.71369ZM13.1777 9.64799C12.4403 9.94316 11.6399 10.0694 10.8362 10.0095C9.58227 9.91594 8.40351 9.37546 7.51435 8.4863C6.6252 7.59715 6.08471 6.41839 5.9912 5.16441C5.93127 4.36071 6.0575 3.56032 6.35266 2.82292C5.76311 3.01442 5.20794 3.30662 4.71284 3.68941C3.89891 4.31872 3.28103 5.16681 2.93151 6.13446C2.58199 7.10211 2.51528 8.14929 2.73919 9.15347C2.9631 10.1577 3.46836 11.0773 4.19586 11.8048C4.92336 12.5323 5.843 13.0376 6.84718 13.2615C7.85136 13.4854 8.89855 13.4187 9.8662 13.0691C10.8338 12.7196 11.6819 12.1017 12.3112 11.2878C12.694 10.7927 12.9862 10.2375 13.1777 9.64799Z" fill="#E0E5EB"/>
</svg>
