<svg width="16" height="16" viewBox="0 0 16 16" fill="none" xmlns="http://www.w3.org/2000/svg">
<path fill-rule="evenodd" clip-rule="evenodd" d="M7.33335 2.58341C4.71 2.58341 2.58335 4.71006 2.58335 7.33341C2.58335 9.95677 4.71 12.0834 7.33335 12.0834C9.95671 12.0834 12.0834 9.95677 12.0834 7.33341C12.0834 4.71006 9.95671 2.58341 7.33335 2.58341ZM1.41669 7.33341C1.41669 4.06573 4.06567 1.41675 7.33335 1.41675C10.601 1.41675 13.25 4.06573 13.25 7.33341C13.25 10.6011 10.601 13.2501 7.33335 13.2501C4.06567 13.2501 1.41669 10.6011 1.41669 7.33341Z" fill="#E0E5EB"/>
<path fill-rule="evenodd" clip-rule="evenodd" d="M10.6875 10.6876C10.9153 10.4598 11.2847 10.4598 11.5125 10.6876L14.4125 13.5876C14.6403 13.8154 14.6403 14.1848 14.4125 14.4126C14.1847 14.6404 13.8153 14.6404 13.5875 14.4126L10.6875 11.5126C10.4597 11.2848 10.4597 10.9154 10.6875 10.6876Z" fill="#E0E5EB"/>
</svg>
